<?xml version='1.0' encoding='utf-8'?>
<!DOCTYPE svg PUBLIC '-//W3C//DTD SVG 1.1//EN' 'http://www.w3.org/Graphics/SVG/1.1/DTD/svg11.dtd'>
<!-- Uploaded to: SVG Repo, www.svgrepo.com, Generator: SVG Repo Mixer Tools -->
<svg fill="#000000" height="32px" width="32px" version="1.1" xmlns="http://www.w3.org/2000/svg" viewBox="0 0 512 512" xmlns:xlink="http://www.w3.org/1999/xlink" enable-background="new 0 0 512 512">
  <g>
    <path d="m466.1,385.6l-38-38.3c-8-8-7.9-20.9 0.1-28.9 8-8 20.9-7.9 28.9,0.1l38,38.3c8,8 7.9,20.9-0.1,28.9-4,4-16,11.8-28.9-0.1z"/>
    <g>
      <path d="m436.8,208.7l-118.5-21.8-77.9-78.4c-55.5-55.8-128.7-97.4-207.1-97.4-7.5,5.32907e-15-24.1,4.4-21.9,24.8 7.9,72 42.7,146.3 96,199.9l81.1,81.5 21.7,119.2c7.7,22.9 27.5,18.3 34.6,10.7l202.9-204.1c7.8-6.6 10.3-28.7-10.9-34.4zm-193.5,182l-15.8-87c-0.7-4.1-2.7-7.8-5.6-10.7l-85.5-86c-41.1-41.4-69.2-94.5-80.6-151.6 58.7,10.7 113.3,39.3 155.7,82l82.4,82.9c2.9,3 6.7,4.9 10.8,5.7l86.7,16-148.1,148.7z"/>
      <path d="m495.1,356.8l-38-38.3c-7.9-8-20.9-8-28.9-0.1-8,7.9-8,20.9-0.1,28.9l38,38.3c12.9,11.8 24.9,4 28.9,0.1 8-7.9 8-20.9 0.1-28.9z"/>
      <path d="m348.1,427.5c-7.9-8-20.9-8-28.9-0.1-8,7.9-8,20.9-0.1,28.9l38,38.3c12.9,11.8 24.9,4 28.9,0.1 8-7.9 8-20.9 0.1-28.9l-38-38.3z"/>
      <path d="m402.6,373c-7.9-8-20.9-8-28.9-0.1-8,7.9-8,20.9-0.1,28.9l38,38.3c12.9,11.8 24.9,4 28.9,0.1 8-7.9 8-20.9 0.1-28.9l-38-38.3z"/>
    </g>
  </g>
</svg>